<svg xmlns="http://www.w3.org/2000/svg" style="display:none;">

  <symbol id="icon-flag" viewBox="0 0 48 32">
    <rect x="1" y="1" width="46" height="30" rx="1.5" fill="#ffffff" stroke="#12417a" stroke-width="1"/>
    <g fill="#b3362c">
      <rect x="1" y="1" width="46" height="2.3" />
      <rect x="1" y="5.6" width="46" height="2.3" />
      <rect x="1" y="10.2" width="46" height="2.3" />
      <rect x="1" y="14.8" width="46" height="2.3" />
      <rect x="1" y="19.4" width="46" height="2.3" />
      <rect x="1" y="24" width="46" height="2.3" />
      <rect x="1" y="28.6" width="46" height="2.3" />
    </g>
    <rect x="1" y="1" width="20" height="16" fill="#12417a" stroke="#12417a" stroke-width="1"/>
    <g fill="#ffffff">
      <circle cx="5" cy="4.2" r="0.8"/><circle cx="9.5" cy="4.2" r="0.8"/><circle cx="14" cy="4.2" r="0.8"/><circle cx="18.5" cy="4.2" r="0.8"/>
      <circle cx="7.25" cy="6.8" r="0.8"/><circle cx="11.75" cy="6.8" r="0.8"/><circle cx="16.25" cy="6.8" r="0.8"/>
      <circle cx="5" cy="9.4" r="0.8"/><circle cx="9.5" cy="9.4" r="0.8"/><circle cx="14" cy="9.4" r="0.8"/><circle cx="18.5" cy="9.4" r="0.8"/>
      <circle cx="7.25" cy="12" r="0.8"/><circle cx="11.75" cy="12" r="0.8"/><circle cx="16.25" cy="12" r="0.8"/>
      <circle cx="5" cy="14.6" r="0.8"/><circle cx="9.5" cy="14.6" r="0.8"/><circle cx="14" cy="14.6" r="0.8"/><circle cx="18.5" cy="14.6" r="0.8"/>
    </g>
  </symbol>

  <symbol id="icon-eagle" viewBox="0 0 200 120">
    <g fill="currentColor">
      <path d="M100 62 C 92 40, 60 26, 20 30 C 45 34, 62 42, 72 54 C 48 48, 22 50, 2 62 C 30 60, 52 64, 68 74 C 44 76, 24 84, 8 98 C 34 88, 56 84, 74 86 C 62 94, 54 104, 50 116 C 66 102, 80 92, 94 88 C 96 96, 98 104, 100 112 C 102 104, 104 96, 106 88 C 120 92, 134 102, 150 116 C 146 104, 138 94, 126 86 C 144 84, 166 88, 192 98 C 176 84, 156 76, 132 74 C 148 64, 170 60, 198 62 C 178 50, 152 48, 128 54 C 138 42, 155 34, 180 30 C 140 26, 108 40, 100 62 Z"/>
      <ellipse cx="100" cy="58" rx="6" ry="5"/>
      <path d="M100 50 L 94 60 L 106 60 Z"/>
    </g>
  </symbol>

  <symbol id="icon-laurel-left" viewBox="0 0 60 140">
    <g fill="none" stroke="currentColor" stroke-width="3" stroke-linecap="round">
      <path d="M50 130 C 20 120, 8 90, 12 60 C 15 38, 25 18, 42 6"/>
    </g>
    <g fill="currentColor">
      <ellipse cx="46" cy="14" rx="7" ry="4" transform="rotate(-40 46 14)"/>
      <ellipse cx="34" cy="24" rx="8" ry="4.5" transform="rotate(-30 34 24)"/>
      <ellipse cx="24" cy="38" rx="8.5" ry="5" transform="rotate(-15 24 38)"/>
      <ellipse cx="17" cy="55" rx="9" ry="5" transform="rotate(-5 17 55)"/>
      <ellipse cx="13" cy="73" rx="9" ry="5" transform="rotate(5 13 73)"/>
      <ellipse cx="13" cy="91" rx="9" ry="5" transform="rotate(15 13 91)"/>
      <ellipse cx="18" cy="108" rx="9" ry="5" transform="rotate(28 18 108)"/>
      <ellipse cx="28" cy="122" rx="9" ry="5" transform="rotate(42 28 122)"/>
      <ellipse cx="42" cy="131" rx="8" ry="4.5" transform="rotate(55 42 131)"/>
    </g>
  </symbol>

  <symbol id="icon-laurel-right" viewBox="0 0 60 140">
    <g fill="none" stroke="currentColor" stroke-width="3" stroke-linecap="round">
      <path d="M10 130 C 40 120, 52 90, 48 60 C 45 38, 35 18, 18 6"/>
    </g>
    <g fill="currentColor">
      <ellipse cx="14" cy="14" rx="7" ry="4" transform="rotate(40 14 14)"/>
      <ellipse cx="26" cy="24" rx="8" ry="4.5" transform="rotate(30 26 24)"/>
      <ellipse cx="36" cy="38" rx="8.5" ry="5" transform="rotate(15 36 38)"/>
      <ellipse cx="43" cy="55" rx="9" ry="5" transform="rotate(5 43 55)"/>
      <ellipse cx="47" cy="73" rx="9" ry="5" transform="rotate(-5 47 73)"/>
      <ellipse cx="47" cy="91" rx="9" ry="5" transform="rotate(-15 47 91)"/>
      <ellipse cx="42" cy="108" rx="9" ry="5" transform="rotate(-28 42 108)"/>
      <ellipse cx="32" cy="122" rx="9" ry="5" transform="rotate(-42 32 122)"/>
      <ellipse cx="18" cy="131" rx="8" ry="4.5" transform="rotate(-55 18 131)"/>
    </g>
  </symbol>

</svg>
